<?xml version="1.0" encoding="utf-8"?>
<!-- Generator: Adobe Illustrator 19.2.1, SVG Export Plug-In . SVG Version: 6.00 Build 0)  -->
<svg version="1.0" id="Layer_1" xmlns="http://www.w3.org/2000/svg" xmlns:xlink="http://www.w3.org/1999/xlink" x="0px" y="0px"
	 viewBox="0 0 300 150" enable-background="new 0 0 300 150" xml:space="preserve">
<path fill="#2E3C40" d="M92.9,37.6c-20.6,0-37.4,16.8-37.4,37.4s16.8,37.4,37.4,37.4c20.6,0,37.4-16.8,37.4-37.4
	S113.5,37.6,92.9,37.6z M92.9,104.4c-16.2,0-29.4-13.2-29.4-29.4c0-16.2,13.2-29.4,29.4-29.4c16.2,0,29.4,13.2,29.4,29.4
	C122.3,91.2,109.1,104.4,92.9,104.4z M173.8,37.6c-20.6,0-37.4,16.8-37.4,37.4s16.8,37.4,37.4,37.4c20.6,0,37.4-16.8,37.4-37.4
	S194.4,37.6,173.8,37.6z M173.8,104.4c-16.2,0-29.4-13.2-29.4-29.4c0-16.2,13.2-29.4,29.4-29.4c16.2,0,29.4,13.2,29.4,29.4
	C203.2,91.2,190,104.4,173.8,104.4z M28.6,60c-7.2-1-14.2,0.9-19.9,5.3V45.5h33.6c1.2,0,2-0.2,2-3.7c0-3.4-1.4-3.5-2.2-3.5H4.9
	c-2.2,0-3.3,1.7-3.3,3.7v32.5c0,1.7,1.1,2.3,3.1,2.7c1.8,0.3,2.8,0.1,3.6-0.7l0.1-0.1c3.5-5.1,11.2-10,18.6-9.2
	c8.7,1.1,15.8,8,16.7,16.6c0.6,5.4-1,10.7-4.7,14.7c-3.6,4-8.7,6.3-14.1,6.3c-7.9,0-14.9-5.1-17.8-12.5c-0.4-1.1-1.2-1.9-4.3-0.8
	c-2.9,1-3,2.3-2.6,3.3c3.8,10.4,13.7,17.3,24.7,17.3c7.5,0,14.6-3.2,19.6-8.8c5-5.6,7.3-12.9,6.5-20.5C49.6,71.2,40.4,61.7,28.6,60z
	 M236.7,38c-10,0.8-17.9,9.6-17.9,20.1v33.3c0,1.9,1.5,2.3,3.7,2.3c2.2,0,3.7-0.4,3.7-2.3V58c0-6.6,4.8-12.2,10.9-12.8
	c3.5-0.4,6.9,0.7,9.5,3.1c2.6,2.3,4,5.6,4,9.1c0,1-0.5,4.2-2.7,7.3c-1.7,2.3-4.9,5-10.5,5c0,0-0.1,0-0.1,0c-1.5,0-2.7,0.1-2.9,3.5
	c-0.2,2.3-0.1,3.4,1.9,3.6c3.6,0.5,7.2-0.2,10.8-2.1c6.2-3.2,10.3-9.3,10.8-15.8c0.4-5.7-1.6-11.3-5.6-15.3
	C248,39.6,242.4,37.6,236.7,38z M285.7,57.5l13.6-13.6c0.5-0.5,1.6-1.6-0.7-4.1c-1-1-1.9-1.6-2.7-1.6h0c-0.7,0-1.1,0.4-1.5,0.7
	l-13.6,13.6L267.2,39c-1.1-1.1-2.4-0.8-4,0.8c-1.7,1.7-2,3-0.9,4.1l13.6,13.7l-13.3,13.3l-0.1,0.1c-0.3,0.3-0.8,0.8-0.8,1.6
	c0,0.8,0.5,1.7,1.6,2.8c0.9,0.9,1.7,1.3,2.5,1.3h0c0.9,0,1.4-0.6,1.7-0.9l13.3-13.3L294.5,76c0.2,0.2,0.7,0.6,1.4,0.6h0
	c0.9,0,1.8-0.5,2.7-1.5c1.5-1.6,1.8-2.9,0.8-4L285.7,57.5z"/>
</svg>
