<?xml version="1.0" encoding="utf-8"?>
<!-- Generator: Adobe Illustrator 19.2.1, SVG Export Plug-In . SVG Version: 6.00 Build 0)  -->
<svg version="1.0" id="Layer_1" xmlns="http://www.w3.org/2000/svg" xmlns:xlink="http://www.w3.org/1999/xlink" x="0px" y="0px"
	 viewBox="0 0 300 150" enable-background="new 0 0 300 150" xml:space="preserve">
<g>
	<polygon fill="#2E3C40" points="174.8,95.7 149.6,37.2 132.9,76.6 150.9,76.6 159.4,95.7 	"/>
	<polygon fill="#2E3C40" points="202.6,95.2 162.2,0 202.6,0 	"/>
	<polygon fill="#2E3C40" points="137.2,0 97,94.6 97,0 	"/>
	<path fill="#2E3C40" d="M203,136.8c0-7.3-1.7-13.2-8.3-13.2c-5.7-0.1-9.1,5.9-9.1,13.2c0,7.3,3.2,13.1,10.6,12.9
		c3.8-0.1,4.9-0.8,6-1.5l-1.3-5.2c-1,1-2.6,1.5-4.2,1.4c-3.4-0.1-4.9-2.4-5.1-6.1h11.4C203,137.8,203,137.3,203,136.8z M191.9,133.6
		c0.4-2.8,1.6-4.8,2.8-4.8c1.2,0,2.1,1.9,2.4,4.8H191.9z"/>
	<path fill="#2E3C40" d="M152.7,123.6c-6,0-9,5.9-9,13.2c0,7.3,3,13.2,9,13.2c6,0,9.1-5.9,9.1-13.2
		C161.8,129.6,158.7,123.6,152.7,123.6z M152.7,144.8c-1.6,0-2.9-3.6-2.9-8s1.3-8,2.9-8c1.6,0,2.9,3.6,2.9,8
		S154.3,144.8,152.7,144.8z"/>
	<path fill="#2E3C40" d="M174.5,124.1c-1.2,0-2.3,0.4-3.4,0.9v-11.1h-6.4v35.7h5.7v-1.5c1.2,1,2.7,1.9,4.5,1.8c5.2,0,8-7.7,7.9-12.9
		C182.5,132,180.3,124,174.5,124.1z M173.6,144.9c-1.2,0-2-1.1-2.6-2.7v-10.7c0.6-1.3,1.5-2.3,2.6-2.2c2.1,0.2,2.9,5.1,2.8,8
		C176.5,140,175.4,144.9,173.6,144.9z"/>
	<path fill="#2E3C40" d="M133.6,113.9V125c-1.1-0.6-2.3-0.9-3.4-0.9c-5.8-0.1-8,7.9-8.2,13.1c-0.1,5.2,2.6,12.9,7.9,12.9
		c1.8,0,3.2-0.8,4.5-1.8v1.5h5.7v-35.7H133.6z M133.6,142.2c-0.6,1.6-1.4,2.8-2.6,2.7c-1.8,0-2.9-5-2.9-7.7c0-2.8,0.7-7.7,2.8-8
		c1.2-0.1,2,0.9,2.6,2.2V142.2z"/>
	<path fill="#2E3C40" d="M113.5,115H107l-7.8,34.6h6.2l1.7-9.1h5.9l1.6,9.1h6.2L113.5,115z M108.1,135.4l2-10.7l1.9,10.7H108.1z"/>
</g>
</svg>
