<?xml version="1.0" encoding="utf-8"?>
<!-- Generator: Adobe Illustrator 19.2.1, SVG Export Plug-In . SVG Version: 6.00 Build 0)  -->
<svg version="1.0" id="Layer_1" xmlns="http://www.w3.org/2000/svg" xmlns:xlink="http://www.w3.org/1999/xlink" x="0px" y="0px"
	 viewBox="0 0 300 150" enable-background="new 0 0 300 150" xml:space="preserve">
<g>
	<path fill="#2E3C40" d="M102.5,54.3L76,39.1l-3.2-1.8l-3.2,1.8L43.2,54.3L40,56.2v3.7v30.4v3.7l3.2,1.8l26.5,15.2l3.2,1.8l3.2-1.8
		l26.5-15.2l3.2-1.8v-3.7V59.8v-3.7L102.5,54.3z M99.3,90.2l-26.5,15.2L46.4,90.2V59.8l26.5-15.2V75l26.5-15.2V90.2z"/>
	<path fill="#2E3C40" d="M146.5,89.1V78.6h-11.8v10.6h-5.9V62.4h5.9v10.7h11.8V62.4h5.8v26.7H146.5z"/>
	<path fill="#2E3C40" d="M186.2,89.1H166c0-8.9,0-17.8,0-26.7h19.6v5.5h-13.9V73h13.1v5.2h-13.1v5.4h14.4V89.1z"/>
	<path fill="#2E3C40" d="M218.4,84.5h-13.6l-1.9,4.6h-6.4l11.9-26.7h6.4l11.9,26.7h-6.4L218.4,84.5z M211.6,68.4l-4.6,10.8h9.1
		L211.6,68.4z"/>
	<path fill="#2E3C40" d="M243.3,81.6v7.6h-5.9V62.4c4.2,0,8.3,0,12.5,0c6.8,0,10.1,4.4,10.1,9.6c0,5.3-3.4,9.5-10.1,9.6H243.3z
		 M243.3,76.1h6.6c2.8,0,4.2-1.9,4.2-4c0-2.1-1.4-4-4.2-4h-6.6V76.1z"/>
</g>
</svg>
