<?xml version="1.0" encoding="utf-8"?>
<!-- Generator: Adobe Illustrator 19.2.1, SVG Export Plug-In . SVG Version: 6.00 Build 0)  -->
<svg version="1.0" id="Layer_1" xmlns="http://www.w3.org/2000/svg" xmlns:xlink="http://www.w3.org/1999/xlink" x="0px" y="0px"
	 viewBox="0 0 300 150" enable-background="new 0 0 300 150" xml:space="preserve">
<g>
	<path fill="#2E3C40" d="M115,91.7l-11.3-30.9h-3.1v-27c0-5-4.1-9.1-9.1-9.1H9.1c-5,0-9.1,4.1-9.1,9.1v82.3c0,5,4.1,9.1,9.1,9.1
		h82.3c5,0,9.1-4.1,9.1-9.1V78.5l10,24.6h8.7l17.2-42.3h-10.1L115,91.7z M33.6,44.2c3.3,0,6.1,2.6,6.1,6.1c0,3.4-2.8,6.1-6.1,6.1
		c-3.3,0-6.1-2.6-6.1-6.1C27.5,46.9,30.3,44.2,33.6,44.2z M74.7,102.2c-6.2,0-9.2-3.7-9.2-8.8c0-1.4,0.2-3,0.6-4.5l3-10.7
		c0.4-1.2,0.5-2.3,0.5-3.3c0-3.4-2.1-5.5-5.4-5.5c-4.2,0-7,3-8.5,8.9l-5.8,23.2H39.8l1.8-7.3c-3,4.9-7.1,7.9-12.2,7.9
		c-6.1,0-9-3.5-9-8.9c0-1.4,0.2-3,0.5-4.5L25.5,70h-7.1l2.2-8h17.2l-6.8,26.9c-0.5,1.7-0.6,3.1-0.6,4.1c0,1.7,0.8,2.2,2.2,2.5
		c0.8,0.2,7.2,0.1,10.7-7.7L47.6,70h-7.2l2.2-8H58L56,71c2.7-5.1,8.1-9.9,13.5-9.9c5.7,0,10.4,4.1,10.4,11.8c0,2-0.3,4.1-1,6.6
		L76,90c-0.3,1.1-0.5,2-0.5,2.8c0,1.8,0.7,2.7,2.1,2.7c1.4,0,3.1-1,5.1-6.5l4,1.5C84.3,98.7,80,102.2,74.7,102.2z"/>
	<path fill="#2E3C40" d="M234.1,59.9c-12.9,0-22.4,9.9-22.4,22c0,12,9.5,21.8,22.3,21.8c13,0,22.5-9.9,22.5-22
		C256.5,69.7,247,59.9,234.1,59.9z M234.1,95.4c-7.5,0-12.8-6.1-12.8-13.6c0-7.4,4.9-13.4,12.6-13.4c7.6,0,12.9,6.1,12.9,13.6
		C246.9,89.3,241.9,95.4,234.1,95.4z"/>
	<rect x="195.8" y="60.8" fill="#2E3C40" width="9.6" height="42"/>
	<path fill="#2E3C40" d="M285,59.9c-6.5,0-10.4,3.4-13.1,7.4v-6.5h-9.6v42h9.6V79.1c0-6.5,3.9-10.4,9.5-10.4c5.7,0,9,3.7,9,10.3
		v23.9h9.6V76.1C300,66.3,294.5,59.9,285,59.9z"/>
	<path fill="#2E3C40" d="M176.4,78c-4.9-1.6-9.5-2.9-9.5-5.9v-0.2c0-2.5,2.1-4.2,5.9-4.2c1.8,0,3.9,0.4,6,1.2l0,0c0,0,0,0,0.1,0
		c0.2,0.1,0.4,0.1,0.5,0.2c1.5,0.5,5.6,1.1,9.1-4.2c-4.5-2.9-10.2-4.8-15.4-4.8c-8.4,0-15,4.9-15,12.8V73c0,8,6.9,10.6,13.1,12.3
		c4.9,1.5,9.4,2.6,9.4,5.9v0.2c0,2.8-2.4,4.5-6.5,4.5c-2.8,0-5.8-0.7-8.8-2.1c-0.9-0.4-5.4-1.9-9.2,3.6c5.2,4.1,11.8,6.2,17.7,6.2
		c8.7,0,15.6-4.4,15.6-13.2v-0.2C189.4,82.7,182.5,79.9,176.4,78z"/>
	<rect x="141.2" y="60.8" fill="#2E3C40" width="9.6" height="42"/>
</g>
</svg>
