<?xml version="1.0" encoding="utf-8"?>
<!-- Generator: Adobe Illustrator 19.2.1, SVG Export Plug-In . SVG Version: 6.00 Build 0)  -->
<svg version="1.0" id="Layer_1" xmlns="http://www.w3.org/2000/svg" xmlns:xlink="http://www.w3.org/1999/xlink" x="0px" y="0px"
	 viewBox="0 0 300 150" enable-background="new 0 0 300 150" xml:space="preserve">
<path fill="#2E3C40" d="M13.5,44.8c14.9,0.3,26.9,0.4,36.9,0.5v6.8c-1.3,0-2.6,0-3.9,0c-3.8-0.1-6,2.1-6,5.7v39.7
	c0,15.3-10.7,22-23,21.5C8.1,118.5,0,112.7,0,103.6c0-6.5,4-11,9.5-10.9c4.6,0.1,7.2,3.2,7.2,7c0,4.7-3.8,8.2-3.8,8.2s0.8,2.4,4,2.4
	c4.5,0,6.8-2.6,6.8-9.5V58c0-3.6-2.5-5.8-6.3-6c-1.3,0-2.6-0.1-3.9-0.1V44.8z M54.7,52c1.1,0.1,2.3,0.1,3.4,0.1
	c3.3,0.1,5.2,2.1,5.2,5.3v33.5c0,3.1-1.9,5.1-5.2,5c-1.1,0-2.3-0.1-3.4-0.1v6.8c10.7,0.5,21.4,0.4,32-0.2v-6.8
	c-1.1,0.1-2.3,0.1-3.4,0.2c-3.3,0.2-5.2-1.8-5.2-4.9V56.9c0-3.1,1.9-5.2,5.2-5.3c1.1-0.1,2.3-0.1,3.4-0.2v-6.8
	c-5.6,0.3-11.3,0.5-16.9,0.5c-4.5,0.1-9.5,0.1-15.1,0.1V52z M143.6,82.6c0,9.7-9.1,15-19.6,16.4c-10.8,1.3-21.6,2.5-32.4,3.2v-6.8
	c0.6,0,1.2-0.1,1.8-0.1c3.3-0.2,5.2-2.4,5.2-5.5V55.8c0-3.1-1.9-4.9-5.2-4.7c-0.6,0-1.2,0.1-1.8,0.1v-6.9c9.6-0.7,19.2-1.6,28.8-2.8
	v0c13-1.4,21,3.1,21,13.2c0,6.9-5.3,11.9-11.9,14.7C137.1,70.1,143.6,73.3,143.6,82.6z M112.9,68c1.1-0.1,2.2-0.2,3.3-0.4
	c6.2-0.7,10-3.9,10-10.4c0-6.4-2-9.7-10-8.8c-1.1,0.1-2.2,0.3-3.3,0.4V68z M127.3,82.8c0-5.3-2.7-8.9-8.2-8.3
	c-2.1,0.2-4.1,0.5-6.2,0.7v18.7c2.1-0.2,4.1-0.5,6.2-0.7C124.3,92.6,127.3,88.1,127.3,82.8z M300,77.4c0,9.6-9,12.9-19.3,12.3
	c-10.6-0.6-21.3-1.2-31.9-1.7v-6.7c0.6,0,1.2,0.1,1.8,0.1c3.3,0.2,5.1-1.7,5.1-4.8V43.2c0-3.1-1.9-5.1-5.1-5.3
	c-0.6,0-1.2-0.1-1.8-0.1v-6.7c9.5,0.5,18.9,1,28.4,1.5c12.8,0.9,20.7,7,20.7,17c0,6.8-5.2,10.6-11.7,12.2
	C293.6,63.8,300,68.3,300,77.4z M269.8,58.3c1.1,0.1,2.2,0.1,3.2,0.2c6.1,0.4,9.8-3.1,9.8-9.5c0-6.3-2-10-9.8-10.5
	c-1.1-0.1-2.2-0.1-3.2-0.2V58.3z M283.9,74.4c0-5.2-2.6-9.3-8-9.6c-2-0.1-4.1-0.2-6.1-0.3v18.4c2,0.1,4.1,0.2,6.1,0.3
	C281,83.5,283.9,79.7,283.9,74.4z M244.1,81.2c0.5,0,1,0,1.6-0.1v6.7c-9.1,0.3-18.2,0.9-27.4,1.5v-6.7c0.8-0.1,1.6-0.1,2.5-0.2
	c3.2-0.2,3.8-4,2.9-6.5c-0.6-1.7-1.1-3.4-1.7-5c-4.9,0.3-9.9,0.7-14.8,1.1c-0.6,1.8-1.1,3.5-1.7,5.3c-0.9,2.6-0.4,6.3,2.9,6
	c1.1-0.1,2.2-0.2,3.2-0.3v6.7c-8.6,0.7-17.2,2.3-25.8,3.2v-6.7c0.4,0,0.9-0.1,1.3-0.1c4.6-0.5,6.7-4,8-7.5
	c4.9-14.9,9.9-30.7,14.8-45.6c4.5-0.4,8.9-0.7,13.4-1c4.9,14.3,9.8,28.6,14.7,42.9C239.2,78.3,240.2,81.3,244.1,81.2z M220.4,64.4
	c-1.5-5.1-1.7-7.2-3.8-14.5c-1-3.3-1.9-8.1-1.9-8.1s-1,4.9-1.9,8.3c-2.1,7.7-2.4,9.7-3.9,15.1C212.7,65,216.6,64.7,220.4,64.4z
	 M190.5,42.6v-7c-11.9,1.1-23.8,2.4-35.7,3.7v7c1.8-0.2,3.5-0.4,5.3-0.6c3.4-0.4,5.3,1.5,5.3,4.7v43.2c0,5.2-1.8,8.7-6.9,8.7
	c-2.1,0-3.2-1.1-3.2-1.1c2.1-1.9,4-4.2,4-8c0-3.5-2.4-6.7-7.1-6.7c-5.5,0-8.9,4.9-8.9,10.7c0,6.9,7.5,12.1,15.3,12.1
	c14.4,0,23-8.6,23-22.2V48.7c0-3.2,1.9-5.4,5.3-5.8C188.2,42.8,189.3,42.7,190.5,42.6z"/>
</svg>
