<?xml version="1.0" encoding="utf-8"?>
<!-- Generator: Adobe Illustrator 20.1.0, SVG Export Plug-In . SVG Version: 6.00 Build 0)  -->
<svg version="1.1" id="Layer_1" xmlns="http://www.w3.org/2000/svg" xmlns:xlink="http://www.w3.org/1999/xlink" x="0px" y="0px"
	 viewBox="0 0 300 150" style="enable-background:new 0 0 300 150;" xml:space="preserve">
<style type="text/css">
	.st0{fill:#2E3C40;}
</style>
<g>
	<path class="st0" d="M104.3,64.3c8.5,4.7,11.5,15.5,6.8,24c-0.1,0.1-0.1,0.2-0.2,0.3c-1.6,2.7-3.9,4.9-6.6,6.4
		c-5.8,3.2-12.8,3.2-18.7,0c-2.7-1.5-5-3.7-6.6-6.4c-5-8.3-2.3-19,6-23.9c0.2-0.1,0.4-0.2,0.6-0.4C91.5,61.2,98.5,61.2,104.3,64.3
		L104.3,64.3z M89.2,69.5c-5.6,3.3-7.5,10.5-4.2,16.1c1,1.8,2.5,3.2,4.3,4.3c1.8,1,3.8,1.6,5.8,1.6c2,0,4-0.5,5.8-1.6
		c1.8-1,3.2-2.5,4.2-4.3c1-1.8,1.6-3.9,1.6-6c0-2.1-0.5-4.1-1.6-5.9c-1-1.8-2.5-3.2-4.2-4.2c-1.7-1-3.7-1.6-5.8-1.5
		C93,67.9,91,68.4,89.2,69.5z"/>
	<path class="st0" d="M161.5,95.3c-2,1.2-4.3,1.9-6.6,1.9c-2,0.1-4-0.6-5.6-2c-1.5-1.6-2.3-3.7-2.2-5.9V64.4l6.4-0.8v8h7.5v4.7h-7.5
		v11.8c-0.1,0.9,0.2,1.8,0.7,2.6c0.5,0.5,1.3,0.8,2.1,0.8c1.3-0.1,2.6-0.5,3.7-1.1L161.5,95.3z"/>
	<path class="st0" d="M176.3,71.7c1.6-0.9,3.5-1.4,5.3-1.4v6.2c-2.3-0.3-4.7,0.4-6.5,1.9c-1.6,1.5-2.5,3.6-2.4,5.8v12.7h-6.4V70.6
		h6.4v5.1C173.5,74,174.8,72.7,176.3,71.7z"/>
	<path class="st0" d="M206.1,74c2.1,2.4,3.2,5.8,3.2,10.1c0,0.9,0,1.5,0,1.9h-19.5c0.7,3.6,3.9,6.2,7.5,6c1.3,0,2.6-0.3,3.9-0.8
		c1.2-0.5,2.3-1.3,3.2-2.2l3.4,3.6c-1.3,1.5-3,2.6-4.8,3.3c-2,0.8-4.1,1.2-6.3,1.2c-2.5,0.1-4.9-0.5-7.1-1.7c-2-1.1-3.7-2.7-4.8-4.7
		c-2.2-4.4-2.2-9.6,0-13.9c1.1-2,2.7-3.7,4.8-4.8c2.1-1.2,4.5-1.7,6.9-1.7C200.8,70.4,204,71.6,206.1,74z M203.4,81.7
		c0-1.7-0.7-3.4-1.9-4.6c-2.7-2.3-6.7-2.4-9.5-0.1c-1.3,1.2-2.1,2.9-2.3,4.7L203.4,81.7z"/>
	<path class="st0" d="M240.3,70.6v26.3h-6.4v-4.2c-0.9,1.4-2.2,2.5-3.7,3.3c-1.6,0.8-3.4,1.2-5.1,1.2c-2.3,0-4.6-0.5-6.6-1.7
		c-1.9-1.1-3.4-2.8-4.4-4.8c-1.1-2.2-1.6-4.6-1.6-7.1c-0.1-2.4,0.5-4.8,1.6-7c1-2,2.5-3.6,4.4-4.7c2-1.1,4.2-1.7,6.5-1.6
		c1.8,0,3.6,0.4,5.2,1.2c1.5,0.8,2.8,1.9,3.7,3.3v-4.2H240.3z M231.6,89.9c1.4-1.4,2.2-3.2,2.3-5.1v-1.9c-0.1-1.9-0.9-3.8-2.3-5.1
		c-1.4-1.3-3.2-2-5.1-1.9c-2-0.1-4,0.7-5.4,2.2c-2.8,3.3-2.8,8.2,0,11.6c1.4,1.5,3.3,2.3,5.4,2.2C228.3,91.9,230.2,91.2,231.6,89.9
		L231.6,89.9z"/>
	<path class="st0" d="M258,76c-2-0.1-3.9,0.7-5.2,2.2c-1.4,1.5-2.1,3.6-2,5.6c-0.1,2.1,0.6,4.1,2,5.7c1.3,1.4,3.2,2.2,5.2,2.1
		c3.1,0,5.5-1,7.1-3.1l4,3.3c-1.2,1.7-2.8,3.1-4.7,3.9c-2.1,1-4.4,1.4-6.7,1.4c-2.4,0-4.8-0.5-6.9-1.7c-2-1.1-3.6-2.7-4.7-4.7
		c-2.2-4.4-2.2-9.6,0-14c1.1-2,2.7-3.7,4.7-4.8c2.2-1.2,4.6-1.7,7-1.7c2.2,0,4.4,0.4,6.4,1.2c1.8,0.8,3.4,2,4.6,3.6l-3.9,3.7
		C263.1,76.9,260.6,75.9,258,76z"/>
	<path class="st0" d="M295.2,73.1c1.8,2,2.8,4.7,2.6,7.4v16.4h-6.4V82.3c0.1-1.6-0.5-3.2-1.6-4.3c-1.1-1.1-2.7-1.7-4.3-1.6
		c-1.9-0.1-3.8,0.7-5.1,2.2c-1.3,1.5-1.9,3.4-1.9,5.4v12.9h-6.4V60.4h6.4v15.2c1.8-3.4,5-5.2,9.5-5.3
		C290.7,70.2,293.3,71.2,295.2,73.1z"/>
	<path class="st0" d="M135.3,70.6v15c0.1,3.2-2.3,5.9-5.5,6c-3.2,0.1-5.9-2.3-6-5.5c0-0.2,0-0.3,0-0.5v-15h-6.3v14.8
		c0,8.6,6,11.8,12.1,11.8c6.1,0,12.1-3.2,12.1-11.8V70.6H135.3z"/>
	<path class="st0" d="M28.5,47.2c-9.2,0-16.2,2.3-20.2,6.4C3.9,58,2.2,63.2,2.2,69.2c0,9.5,4.8,19.7,11.5,26.4
		c1.8,1.8,7.8,7.1,15.7,7.1c8.1,0,14.1-5,17.9-8.7c7.3-7.3,14-20,14-28.2c0.1-3.5-1.3-6.9-3.7-9.4C51.2,50,37.5,47.2,28.5,47.2z
		 M39.7,80.1c-3.1,3.1-6,4.2-8.9,4.2c-2.8,0-5.5-1.2-7.5-3.2c-2.3-2.3-3.6-5.4-3.8-8.6c-0.1-2.7,1-5.4,2.9-7.3c2-2,4.9-3.4,9.3-3.4
		c3.6-0.2,7,1.2,9.6,3.7c1.5,1.5,2.3,3.5,2.3,5.6C43.4,74.5,42.1,77.7,39.7,80.1z"/>
</g>
</svg>
