<?xml version="1.0" encoding="utf-8"?>
<!-- Generator: Adobe Illustrator 19.2.1, SVG Export Plug-In . SVG Version: 6.00 Build 0)  -->
<svg version="1.0" id="Layer_1" xmlns="http://www.w3.org/2000/svg" xmlns:xlink="http://www.w3.org/1999/xlink" x="0px" y="0px"
	 viewBox="0 0 300 150" enable-background="new 0 0 300 150" xml:space="preserve">
<g>
	<path fill="#2E3C40" d="M68.6,76.6c-0.8-5.3-1.5-10.4-2.2-14.9c-0.2-1.2-0.3-2.4-0.5-3.5c-0.4-2.9-0.8-5.3-1-7.1
		c-0.3-1.7-0.4-2.7-0.4-2.8c0-0.1,0-0.2-0.1-0.3c-0.1-0.2-0.4-0.4-0.6-0.4c-0.3,0-6.7-0.5-6.7-0.5s-0.4-0.4-1.1-1
		c-0.2-0.2-0.5-0.5-0.8-0.8c-0.1-0.1-0.3-0.3-0.4-0.4c-1.2-1.2-2.4-2.4-2.7-2.6c-0.1-0.1-0.2-0.1-0.3-0.2c0,0-0.1,0-0.1,0
		c-0.1,0-0.2-0.1-0.3-0.1c0,0,0,0,0,0c-0.4-0.1-0.9,0-1.1,0.1c-0.1,0-1,0.3-2.5,0.8c-1.5-4.3-4.1-8.2-8.8-8.2c-0.1,0-0.3,0-0.4,0
		c-1.3-1.7-2.9-2.5-4.4-2.5c-10.8,0-15.9,13.5-17.6,20.3c-4.2,1.3-7.2,2.2-7.6,2.3c-2.3,0.7-2.4,0.8-2.7,3c-0.2,1.7-6.4,49-6.4,49
		l47.7,8.9l25.9-5.6c0,0-2-13.5-4.1-27.9C69.2,80.5,68.9,78.5,68.6,76.6z M38.2,45.4c0,0.2,0,0.3,0,0.5c-2.6,0.8-5.5,1.7-8.3,2.6
		c1.6-6.2,4.6-9.2,7.2-10.3C37.8,39.7,38.2,42.1,38.2,45.4z M33.9,35c0.5,0,0.9,0.2,1.4,0.5c-3.5,1.6-7.2,5.7-8.7,13.9
		c-2.3,0.7-4.5,1.4-6.6,2C21.8,45.2,26.1,35,33.9,35z M35.8,71.5c0,0-2.8-1.5-6.2-1.5c-5,0-5.3,3.2-5.3,3.9c0,4.3,11.3,6,11.3,16.1
		c0,8-5.1,13.1-11.9,13.1c-8.2,0-12.4-5.1-12.4-5.1l2.2-7.2c0,0,4.3,3.7,7.9,3.7c2.4,0,3.3-1.9,3.3-3.2c0-5.7-9.3-5.9-9.3-15.2
		c0-7.8,5.6-15.4,16.9-15.4c4.4,0,6.5,1.2,6.5,1.2L35.8,71.5z M41,44.9c0-0.3,0-0.6,0-0.9c0-2.7-0.4-4.8-1-6.5c2.4,0.3,4,3,5,6.1
		C43.9,44.1,42.5,44.5,41,44.9z"/>
	<path fill="#2E3C40" d="M103.7,79.8c-2.6-1.4-3.9-2.6-3.9-4.2c0-2.1,1.8-3.4,4.7-3.4c3.3,0,6.3,1.4,6.3,1.4l2.4-7.2
		c0,0-2.2-1.7-8.5-1.7c-8.9,0-15,5.1-15,12.2c0,4.1,2.9,7.1,6.7,9.4c3.1,1.8,4.2,3,4.2,4.9c0,1.9-1.5,3.5-4.4,3.5
		c-4.3,0-8.3-2.2-8.3-2.2l-2.5,7.2c0,0,3.7,2.5,10,2.5c9.1,0,15.7-4.5,15.7-12.6C111,85.2,107.7,82.1,103.7,79.8z"/>
	<path fill="#2E3C40" d="M140.1,64.7c-4.5,0-8,2.1-10.8,5.4l-0.1-0.1l3.9-20.4H123l-9.9,51.9h10.2l3.4-17.8c1.3-6.7,4.8-10.8,8-10.8
		c2.3,0,3.2,1.5,3.2,3.8c0,1.4-0.1,3.1-0.4,4.5l-3.8,20.3h10.2l4-21c0.4-2.2,0.7-4.9,0.7-6.6C148.4,68.1,145.4,64.7,140.1,64.7z"/>
	<path fill="#2E3C40" d="M171.4,64.7c-12.2,0-20.3,11.1-20.3,23.4c0,7.9,4.9,14.2,14,14.2c12,0,20.1-10.8,20.1-23.4
		C185.2,71.6,180.9,64.7,171.4,64.7z M166.4,94.4c-3.5,0-4.9-2.9-4.9-6.6c0-5.8,3-15.3,8.5-15.3c3.6,0,4.8,3.1,4.8,6.1
		C174.8,84.8,171.8,94.4,166.4,94.4z"/>
	<path fill="#2E3C40" d="M211.2,64.7c-6.9,0-10.8,6-10.8,6h-0.1l0.6-5.5h-9c-0.4,3.7-1.3,9.3-2.1,13.5l-7.1,37.2h10.2l2.8-15h0.2
		c0,0,2.1,1.3,6,1.3c11.9,0,19.7-12.2,19.7-24.6C221.7,70.8,218.7,64.7,211.2,64.7z M201.5,94.6c-2.6,0-4.2-1.5-4.2-1.5l1.7-9.5
		c1.2-6.3,4.5-10.5,8-10.5c3.1,0,4.1,2.9,4.1,5.6C211.1,85.2,207.2,94.6,201.5,94.6z"/>
	<path fill="#2E3C40" d="M236.2,50.1c-3.2,0-5.8,2.6-5.8,5.9c0,3,1.9,5.1,4.8,5.1h0.1c3.2,0,5.9-2.1,6-5.9
		C241.3,52.2,239.3,50.1,236.2,50.1z"/>
	<polygon fill="#2E3C40" points="222,101.5 232.1,101.5 239.1,65.5 228.8,65.5 	"/>
	<path fill="#2E3C40" d="M264.9,65.4h-7.1l0.4-1.7c0.6-3.5,2.7-6.6,6-6.6c1.8,0,3.2,0.5,3.2,0.5l2-8c0,0-1.8-0.9-5.5-0.9
		c-3.6,0-7.2,1-9.9,3.4c-3.5,2.9-5.1,7.2-5.9,11.5l-0.3,1.7h-4.7l-1.5,7.7h4.7l-5.4,28.4h10.2l5.4-28.4h7L264.9,65.4z"/>
	<path fill="#2E3C40" d="M289.4,65.5c0,0-6.4,16-9.2,24.8H280c-0.2-2.8-2.5-24.8-2.5-24.8h-10.7l6.1,33.1c0.1,0.7,0.1,1.2-0.2,1.7
		c-1.2,2.3-3.2,4.5-5.5,6.1c-1.9,1.4-4.1,2.3-5.7,2.9l2.8,8.6c2.1-0.4,6.3-2.1,9.9-5.5c4.6-4.3,8.9-11.1,13.3-20.2L300,65.5H289.4z"
		/>
</g>
</svg>
