<?xml version="1.0" encoding="utf-8"?>
<!-- Generator: Adobe Illustrator 19.2.1, SVG Export Plug-In . SVG Version: 6.00 Build 0)  -->
<svg version="1.0" id="Layer_1" xmlns="http://www.w3.org/2000/svg" xmlns:xlink="http://www.w3.org/1999/xlink" x="0px" y="0px"
	 viewBox="0 0 300 150" enable-background="new 0 0 300 150" xml:space="preserve">
<path fill="#2E3C40" d="M111.9,39.2l-1.4-0.4c-1-0.3-2.5-0.8-2.5-2.1c0-1.2,1.4-1.8,2.4-1.8c1.4,0,2.7,0.6,3.8,1.4l2.3-4.4
	c-1.9-1.1-4.6-1.8-6.8-1.8c-4.4,0-7.5,2.9-7.5,7.3c0,3.7,2.3,5.1,5.9,6.2c1.2,0.3,3.8,0.9,3.8,2.5c0,1.5-1.8,2.2-3.1,2.2
	c-1.9,0-3.6-1-5-2.3l-2.4,4.6c2.2,1.6,4.9,2.5,7.7,2.5c2.2,0,4.5-0.6,6.2-2.1c1.7-1.5,2.3-3.7,2.3-5.9
	C117.3,42.3,115,40.1,111.9,39.2z M132.1,45.3h3.4c4.1,0,7.7-2.3,7.7-7.4c0-5-3.9-7.2-7.9-7.2h-8.7v21.8h5.6V45.3z M132.1,35.4h1.9
	c2.2,0,3.9-0.1,3.9,2.6c0,2.7-1.4,2.5-3.5,2.5h-2.3V35.4z M162.8,53.2c7,0,12.1-5,12.1-12c0-6.6-5.8-11.2-12.1-11.2
	c-6.3,0-12.1,4.6-12.1,11.2C150.8,48.3,155.9,53.2,162.8,53.2z M162.8,35.5c3.4,0,6.2,2.7,6.2,5.8c0,3.8-2.8,6.5-6.2,6.5
	s-6.2-2.7-6.2-6.5C156.7,38.2,159.5,35.5,162.8,35.5z M187.2,52.4h5.6v-17h5.1l-0.5-4.8h-15l-0.5,4.8h5.3V52.4z M182.6,78.6
	c0-14.5-12.3-15.4-15-15.4l-15.8,0l-0.1,52.2c2.9,0,5.8,0.1,8.6,0.1V95.3c1.6,0,2.8,0,4.2,0l8.6,20.6c3.2,0.1,6.4,0.2,9.5,0.4
	l-2.1-4.9L173,93.8C177.3,92.1,182.6,88.1,182.6,78.6z M167.5,86.9h-7.2V70.7l6.7,0c3.2,0,7.1,1.6,7.1,8.1
	C174.1,87.3,167.5,86.9,167.5,86.9z M129.4,93.2c4-0.2,7.9-0.3,12.3-0.3V85c0,0-7.5,0.1-12.3,0.2V70.7h15.1v-7.5h-24.2l0.1,52.8
	c7.7-0.4,15.8-0.6,24.1-0.6l0-8.1c0,0-8,0.1-15.1,0.3V93.2z M103.2,85.3c0,0-10.8,0.8-15.9,1.2V63.2h-9l0,56.8
	c2.9-0.5,5.9-0.9,9-1.3l0-23.8l15.9-1.3l0,23.5c2.9-0.2,5.9-0.5,9.1-0.7V63.1l-9,0L103.2,85.3z M204.5,62.9
	c-15.3,0-17.7,10.6-17.7,26.9s1.3,28.9,17.8,29.7c14.4,0.8,17.1-7.8,17.1-29.7C221.7,73.5,219.5,62.9,204.5,62.9z M212.7,90
	c0,15.9-0.6,21.2-8.1,20.6c-8-0.6-8.7-6.1-8.7-20.6c0-9.9-0.6-18.4,8.6-18.4C213.1,71.6,212.7,80.1,212.7,90z"/>
</svg>
