<?xml version="1.0" encoding="utf-8"?>
<!-- Generator: Adobe Illustrator 20.1.0, SVG Export Plug-In . SVG Version: 6.00 Build 0)  -->
<svg version="1.1" id="Layer_1" xmlns="http://www.w3.org/2000/svg" xmlns:xlink="http://www.w3.org/1999/xlink" x="0px" y="0px"
	 viewBox="0 0 300 150" style="enable-background:new 0 0 300 150;" xml:space="preserve">
<style type="text/css">
	.st0{fill:#2E3C40;}
</style>
<g>
	<path class="st0" d="M87.5,11.7c-13.7,0-16.4,10.4-16.4,17.4c0,15.8,24.2,18.8,24.2,29.8c0,2.8-2.3,5.1-5.1,5.1c-0.1,0-0.2,0-0.3,0
		c-6.7,0-8-7.3-13.3-7.3s-6.6,5-6.6,7.9c0,5.1,6.3,12.4,19.4,12.4s18.8-11.1,18.8-20.4c0-16.3-24-18.5-24-27.3
		c0-2.8,1.2-4.5,3.3-4.5c5.1,0,5.4,4.9,10.1,4.9c3.5,0.2,6.5-2.5,6.7-6c0-0.2,0-0.3,0-0.5C104.4,19.9,100,11.7,87.5,11.7z"/>
	<path class="st0" d="M120.8,30c-13.7,0-15.8,1.9-15.8,7.5c0,6.7,8.8,4.6,9.8,4.6c1.3,0,1.3,0.9,1.3,3.5S115,64.8,115,71.1
		s4.7,5.8,6.9,5.8s5.8-1,5.8-6.9S126,45.7,126,44.7s-0.1-2.8,1.1-2.8c1.8,0,10,1.9,10-5.7C137.2,30.4,131.2,30,120.8,30z"/>
	<path class="st0" d="M152.8,35.4c-10.2-0.5-15.7,6-16.2,20.9c-0.4,11.7,4.5,17.9,12.3,18.2s14.7-4.8,15.8-21.5
		C165.5,40.7,158.4,35.7,152.8,35.4z M149.9,64c-3.6-0.2-3.5-4.5-3.3-7.7c0.4-6.4,1.2-11.1,4.8-11c3.1,0.2,3.2,3.3,2.9,8.1
		S153.6,64.3,149.9,64z"/>
	<path class="st0" d="M205.4,15.3c-4.1,0-6.2,1.8-6.2,5.6c0,6.3,10.5,16.2,10.5,19.5s-1.3,12.3-1.3,15.3s1.6,5.8,5.4,5.8
		s6.3-3.2,6.3-7s-1.4-11.3-1.4-14.5S230,26.5,230,20.3c0-5.6-4.2-5.6-5.8-5.6c-4.9,0-7.3,12.7-9.2,12.7S209.9,15.3,205.4,15.3z"/>
	<path class="st0" d="M218.1,67.7c-3.5,0-1.9,0.1-6.4,0.1c-10.5,0-12.9-14.7-21.1-17.2c0,0,9.2-2.7,9.2-12
		c0-10.5-11.3-12.6-15.1-12.6c-6.7,0-15.7-0.2-15.5,8c0.8,28.8-3.7,40.4,4.6,40.4s6.2-9,6.2-14.1c0-4.1,1.5-4.4,3-4.4
		c4.2,0,10.5,22,28.9,22c9.6,0,10.5-3.7,10.5-6c0.2-2.2-1.5-4.1-3.7-4.3C218.4,67.6,218.3,67.6,218.1,67.7z M182.8,46.9
		c-2.7-0.4-2.3-4.5-2.3-7.2c0-1.5,0.3-4.4,2.3-4.4c3.2,0,4.2,2.3,4.2,4.6S186.9,47.4,182.8,46.9z"/>
	<path class="st0" d="M103.7,108.3c-1.1-1.5,6.7-1,6.7-14.4c0-13.2-14-12.6-14-12.6c-13.4-0.8-16.9,1.2-17.2,5.4s1.1,14.9,1.3,16.4
		s-5.4-1.9-5.4,5c0,2.5,1.9,4.7,3.1,4.7c3.6,0.1,2.5,0.1,2.5,1.6c-0.1,2.2-2.9,20.3,8.7,21.9c17.8,2.4,22.7-1.8,22.7-14.9
		C112.1,111,104.5,109.4,103.7,108.3z M92.8,92.9c0.1-1.9,2.1-2.2,2.8-2.3c1.5,0.5,3.2,2.6,3.2,6.2c0,4.2-1.4,6.3-3.2,6.2
		C92.2,102.9,92.7,94.7,92.8,92.9z M96.5,127.1c-3.3-0.2-3.2-9.2-3.1-11.2s1-3.2,3-3.1c3.1,0.1,3.2,3,3.2,8.1
		C99.6,125.4,98.8,127.2,96.5,127.1z"/>
	<path class="st0" d="M177.6,80.6c-16.1,0-20.9,0.8-20,7.8s14.2,0.9,14.2,7.6c0,6.1-1.5,20.9-1.5,27.4c0,6.5,1.9,9.2,6.9,9.2
		s5.8-3.1,5.8-9.8s-0.3-23.8-0.3-26.2c0-8.4,15.5-0.3,15.5-9.5C198.1,79.8,187.8,80.6,177.6,80.6z"/>
	<path class="st0" d="M211.9,88.4c-7.9-1.3-14.1,3.4-15.2,11.3c-1.7,11.7,12.9,17.6,12.4,23.8c-0.2,2.4-2,4.8-4.7,4.4
		c-4.5-0.6-5.7-2.3-4.3-6.8c1.3-4-0.6-5.2-2.6-6.1s-5.5,0.6-7.4,6.1c-1.2,3.5-3.2,13.7,12.4,16.8c7.8,1.8,15.6-3.1,17.4-10.9
		c0.1-0.5,0.2-1.1,0.3-1.6c1.6-12.9-13.9-17.3-12.7-24.6c0.3-2,1.8-3,3.3-2.8c3.9,0.7,2.1,5.6,6.8,6.4c4.2,0.7,5.4-4.6,5.4-5.9
		C223.1,95.5,222.5,90.1,211.9,88.4z"/>
	<path class="st0" d="M224,131.9c1.8,0,3.2,1.3,3.3,3.1c0,1.8-1.3,3.2-3.1,3.3c-1.8,0-3.2-1.3-3.3-3.1c0,0,0-0.1,0-0.1
		C220.9,133.4,222.3,131.9,224,131.9C224,131.9,224,131.9,224,131.9z M224,137.7c1.4,0.1,2.6-1,2.7-2.5c0.1-1.4-1-2.6-2.5-2.7
		c-1.4-0.1-2.6,1-2.7,2.5c0,0,0,0.1,0,0.1C221.5,136.5,222.6,137.6,224,137.7C224,137.7,224,137.7,224,137.7z M222.9,133.5h1.3
		c0.6,0,1,0.4,1,1c0,0.4-0.2,0.7-0.6,0.9l0,0c0,0.1,0.1,0.1,0.1,0.2l0.6,1.2h-0.7l-0.6-1.3h-0.5v1.3h-0.6L222.9,133.5z M224.1,135
		c0.3,0,0.5-0.2,0.5-0.5c0,0,0,0,0-0.1c0-0.3-0.2-0.5-0.4-0.5c0,0-0.1,0-0.1,0h-0.5v1.1H224.1z"/>
	<path class="st0" d="M143.5,106.6c0.3,3.4-2,6.3-4.5,6.5s-4.6-0.7-4.9-4.1s0.7-5.7,4.7-6C139.4,103,143.2,103.2,143.5,106.6z"/>
	<path class="st0" d="M160.8,104c-4.2-12.7-10-20.1-21.8-20.9c-3.4-0.1-20.3-2.8-24.1,24.9c-1.7,27,26.6,24.3,26.6,24.3
		S166.1,132.3,160.8,104z M148.9,111.5c-0.9,2.9,2.9,2.8,0.3,5.4c-3.8,3.9-2.2-1.7-6.1,0.3c-4.1,2,1,4.4-4.4,4.6
		c-4.9,0.2-0.4-2.7-4.3-4.2s-3.1,3.6-6.1,0.2c-2.7-3.2,2-2.6,0.6-5.8c-1.6-3.6-4.3-0.3-4.3-4.4c0-4.4,3.6-0.6,4.6-4.5
		c1-4.2-2.7-3.9,0.3-6.1c3.7-2.7,2.3,2,6,0.7s-0.6-4.3,4.4-3.9c4.2,0.3,0.6,3,3.3,4.4c2,1,2.9-3.3,5.7,0.2c2.2,2.8-1.2,2.8-0.7,5.1
		c0.6,2.8,3.4-0.4,3.8,3.8C152.4,111.4,149.7,108.9,148.9,111.5L148.9,111.5z"/>
	<path class="st0" d="M139,113.1c-2.5,0.2-4.6-0.7-4.9-4.1s0.7-5.7,4.7-6c0.6-0.1,4.4,0.2,4.7,3.6S141.5,112.9,139,113.1z"/>
	<path class="st0" d="M139,113.1c-2.5,0.2-4.6-0.7-4.9-4.1s0.7-5.7,4.7-6c0.6-0.1,4.4,0.2,4.7,3.6S141.5,112.9,139,113.1z"/>
</g>
</svg>
