<?xml version="1.0" encoding="utf-8"?>
<!-- Generator: Adobe Illustrator 19.2.1, SVG Export Plug-In . SVG Version: 6.00 Build 0)  -->
<svg version="1.0" id="Layer_1" xmlns="http://www.w3.org/2000/svg" xmlns:xlink="http://www.w3.org/1999/xlink" x="0px" y="0px"
	 viewBox="0 0 300 150" enable-background="new 0 0 300 150" xml:space="preserve">
<g>
	<g>
		<path fill="#2E3C40" d="M195.1,54.9h-11.7c-0.3,0-0.6,0.3-0.6,0.6v6.8c0,0.3,0.3,0.6,0.6,0.6h11.7c0.3,0,0.6-0.3,0.6-0.6v-6.8
			C195.7,55.1,195.4,54.9,195.1,54.9z"/>
		<path fill="#2E3C40" d="M194.9,65h-22.5c-0.3,0-0.7,0.3-0.7,0.6l-2.9,11v0l-0.1,0.6l-3.5-11.7c-0.1-0.3-0.4-0.6-0.8-0.6h-8.8
			c-0.3,0-0.7,0.3-0.8,0.6l-3.3,11.1l0,0l-0.2,0.6l-0.1-0.6v0l-1.4-5.5l-1.4-5.5c-0.1-0.3-0.4-0.6-0.7-0.6h-17.7v-9.5
			c0-0.3-0.4-0.7-0.8-0.5l-11.1,3.5c-0.3,0.1-0.6,0.3-0.6,0.6v6h-2.9c-0.3,0-0.6,0.3-0.6,0.6V74c0,0.3,0.3,0.6,0.6,0.6h2.9v10.3
			c0,7.3,4,10.7,11.3,10.7c3,0,6-0.7,8-1.7v-0.6c0,0,0-6.2,0-8.3c0-0.4-0.4-0.6-0.6-0.5c-1.2,0.5-2.1,0.6-3.2,0.6c-2,0-3-0.8-3-3.1
			v-7.6h6.3c0.3,0,0.6-0.3,0.6-0.6v-7.1l8.3,27.7c0.1,0.3,0.4,0.6,0.8,0.6h9.2c0.3,0,0.7-0.3,0.8-0.6l3.9-12.3l2,6.4l1.8,5.9
			c0.1,0.3,0.4,0.6,0.8,0.6h9.2c0.3,0,0.7-0.3,0.8-0.6l8.4-27.8v27.8c0,0.3,0.3,0.6,0.6,0.6h11.3c0.3,0,0.6-0.3,0.6-0.6v-29
			C195.5,65.2,195.2,65,194.9,65z"/>
		<path fill="#2E3C40" d="M209.7,54.9h-11.3c-0.3,0-0.6,0.3-0.6,0.6v39.1c0,0.3,0.3,0.6,0.6,0.6h11.3c0.3,0,0.6-0.3,0.6-0.6V55.4
			C210.3,55.1,210,54.9,209.7,54.9z"/>
		<path fill="#2E3C40" d="M224.8,54.9H213c-0.3,0-0.6,0.3-0.6,0.6v6.8c0,0.3,0.3,0.6,0.6,0.6h11.7c0.3,0,0.6-0.3,0.6-0.6v-6.8
			C225.4,55.1,225.1,54.9,224.8,54.9z"/>
		<path fill="#2E3C40" d="M224.5,65h-11.3c-0.3,0-0.6,0.3-0.6,0.6v29c0,0.3,0.3,0.6,0.6,0.6h11.3c0.3,0,0.6-0.3,0.6-0.6v-29
			C225.1,65.2,224.9,65,224.5,65z"/>
		<path fill="#2E3C40" d="M243.2,64.2c-9.9,0-16.9,7.2-16.9,15.7V80c0,8.5,7,15.6,16.8,15.6c9.9,0,16.9-7.2,16.9-15.7v-0.1
			C260,71.4,253,64.2,243.2,64.2z M248,80c0,2.9-2,5.2-4.8,5.2c-2.7,0-4.9-2.4-4.9-5.3v-0.1c0-2.9,2-5.2,4.8-5.2
			c2.7,0,4.9,2.4,4.9,5.3V80z"/>
	</g>
	<g>
		<path fill="#2E3C40" d="M73.1,41.9C54.8,41.9,40,56.7,40,75c0,18.3,14.8,33.1,33.1,33.1c18.3,0,33.1-14.8,33.1-33.1
			C106.2,56.7,91.4,41.9,73.1,41.9z M73.1,99.4c-13.5,0-24.4-10.9-24.4-24.4c0-13.5,10.9-24.4,24.4-24.4c13.5,0,24.4,10.9,24.4,24.4
			C97.5,88.5,86.6,99.4,73.1,99.4z"/>
		<circle fill="#2E3C40" cx="81.3" cy="66.8" r="6.9"/>
		<circle fill="#2E3C40" cx="81.3" cy="83.2" r="6.9"/>
		<circle fill="#2E3C40" cx="64.9" cy="83.2" r="6.9"/>
		<circle fill="#2E3C40" cx="64.9" cy="66.8" r="6.9"/>
	</g>
</g>
</svg>
