<?xml version="1.0" encoding="utf-8"?>
<!-- Generator: Adobe Illustrator 19.2.1, SVG Export Plug-In . SVG Version: 6.00 Build 0)  -->
<svg version="1.0" id="Layer_1" xmlns="http://www.w3.org/2000/svg" xmlns:xlink="http://www.w3.org/1999/xlink" x="0px" y="0px"
	 viewBox="0 0 300 150" enable-background="new 0 0 300 150" xml:space="preserve">
<g>
	<g>
		<path fill="#2E3C40" d="M98.7,77.6c0,4.4-3.7,8-8.7,8c-5,0-8.7-3.6-8.7-8V61.9h-2.6v15.8C78.8,83.4,83.2,88,90,88
			c6.8,0,11.2-4.6,11.2-10.3V61.9h-2.6V77.6z"/>
		<path fill="#2E3C40" d="M126.9,61.9h-8.3v25.7h8.3c7.7,0,12.9-4.7,12.9-12.9C139.8,66.6,134.6,61.9,126.9,61.9z M126.7,85.3h-5.5
			V64.2h5.5c6.3,0,10.5,3.7,10.5,10.6C137.2,81.6,133,85.3,126.7,85.3z"/>
		<path fill="#2E3C40" d="M200.8,85.7c-6.1,0-10.4-5-10.4-11.1c0-6.1,4.3-10.7,10.3-10.7c4.8,0,7.8,2.8,7.8,2.8l1.4-1.9
			c0,0-3.1-3.3-9.2-3.3c-7.3,0-12.9,5.7-12.9,13.1c0,7.5,5.4,13.4,13,13.4c6.3,0,9.8-4,9.8-4l-1.5-1.8
			C209.1,82.2,206,85.7,200.8,85.7z"/>
		<rect x="227.3" y="61.9" fill="#2E3C40" width="2.5" height="25.7"/>
		<polygon fill="#2E3C40" points="245.4,64.2 254.7,64.2 254.7,87.6 257.2,87.6 257.2,64.2 266.4,64.2 266.4,61.9 245.4,61.9 		"/>
		<polygon fill="#2E3C40" points="297.2,61.9 288.9,74.3 288.8,74.3 280.5,61.9 277.7,61.9 287.6,76.5 287.6,87.6 290.1,87.6 
			290.1,76.5 300,61.9 		"/>
		<path fill="#2E3C40" d="M162.3,61.9l-10.5,25.7h2.8l2.8-6.8l11.6-2.4l3.7,9.2h2.8L165,61.9H162.3z M163.6,65.4L163.6,65.4L168,76
			l-9.5,1.9L163.6,65.4z"/>
	</g>
	<path fill="#2E3C40" d="M53.1,50.5l-3.5-2l-14.2,8.2v25.5c0,1.1-0.1,2.2-0.3,3.2c-0.2,1-0.5,2-0.9,3c-0.1,0.2-0.2,0.5-0.3,0.7
		c-0.4,0-0.9-0.1-1.3-0.2c-0.9-0.2-1.8-0.5-2.7-0.8c-0.8-0.4-1.6-0.8-2.4-1.3c-0.8-0.5-1.5-1.1-2.1-1.7c-0.6-0.6-1.2-1.3-1.7-2.1
		c-0.5-0.8-1-1.6-1.3-2.4c-0.4-0.9-0.6-1.7-0.8-2.7c-0.2-0.9-0.3-1.9-0.3-2.9l0-24.4l-3.5-2L0,58.7l0,23.4
		c0,10.8,8.7,19.5,19.5,19.5c3.6,0,6.9-1,9.8-2.6l14.4-8.3c5.7-3,9.5-8.9,9.5-15.7L53.1,50.5z M25.7,96.8c-1,0.4-2,0.7-3,0.9
		c-1,0.2-2.1,0.3-3.2,0.3s-2.2-0.1-3.2-0.3c-1-0.2-2-0.5-3-0.9c-0.9-0.4-1.9-0.9-2.7-1.5c-0.8-0.6-1.6-1.2-2.4-1.9
		c-0.7-0.7-1.4-1.5-1.9-2.4c-0.6-0.9-1.1-1.8-1.5-2.7c-0.4-1-0.7-2-0.9-3c-0.2-1-0.3-2.1-0.3-3.2V60.7l14.2-8.2l0,22.4
		c0,8.5,6,15.6,14,17.3c-0.3,0.4-0.6,0.7-1,1.1c-0.7,0.7-1.5,1.4-2.4,1.9C27.5,95.9,26.6,96.4,25.7,96.8z M49.3,77.8
		c-0.2,0.9-0.5,1.8-0.8,2.7c-0.4,0.8-0.8,1.6-1.3,2.4c-0.5,0.8-1.1,1.5-1.7,2.1c-0.6,0.6-1.3,1.2-2.1,1.7c-0.8,0.5-1.6,1-2.4,1.3
		c-0.9,0.4-1.7,0.6-2.7,0.8c-0.2,0-0.4,0.1-0.6,0.1c0.8-2.1,1.2-4.4,1.2-6.8l0-23.4l10.6-6.1v22.4C49.6,75.9,49.5,76.9,49.3,77.8z"
		/>
</g>
</svg>
